<svg xmlns="http://www.w3.org/2000/svg" viewBox="0 0 48 48" fill="none" stroke-linecap="round" stroke-linejoin="round">
	<g transform="translate(23 37) rotate(-34) scale(1.05)">
		<path d="M0 0 C-1 -3 -4 -3 -3.5 -6 C-5.5 -7 -4.5 -10 -2.5 -10 C-3 -13 -1 -15 0 -15 C1 -15 3 -13 2.5 -10 C4.5 -10 5.5 -7 3.5 -6 C4 -3 1 -3 0 0 Z" fill="#639a35" stroke="#3b271b" stroke-width="1.90"/>
		<path d="M0 -2 L0 -12" stroke="#80b44c" stroke-width="1.33"/>
	</g>
	<g transform="translate(25 37) rotate(34) scale(1.05)">
		<path d="M0 0 C-1 -3 -4 -3 -3.5 -6 C-5.5 -7 -4.5 -10 -2.5 -10 C-3 -13 -1 -15 0 -15 C1 -15 3 -13 2.5 -10 C4.5 -10 5.5 -7 3.5 -6 C4 -3 1 -3 0 0 Z" fill="#639a35" stroke="#3b271b" stroke-width="1.90"/>
		<path d="M0 -2 L0 -12" stroke="#80b44c" stroke-width="1.33"/>
	</g>
	<g transform="translate(24 37) rotate(0) scale(1.2)">
		<path d="M0 0 C-1 -3 -4 -3 -3.5 -6 C-5.5 -7 -4.5 -10 -2.5 -10 C-3 -13 -1 -15 0 -15 C1 -15 3 -13 2.5 -10 C4.5 -10 5.5 -7 3.5 -6 C4 -3 1 -3 0 0 Z" fill="#80b44c" stroke="#3b271b" stroke-width="1.67"/>
		<path d="M0 -2 L0 -12" stroke="#a3cc72" stroke-width="1.17"/>
	</g>
	<path d="M12 42 C14 37.5 20.0 36 24.0 36 C28.0 36 34 37.5 36 42 Z" fill="#ad7f4f" stroke="#3b271b" stroke-width="2"/>
	<path d="M15.5 40.2 C17 39 18.5 37.6 20 37.5" stroke="#c9a274" stroke-width="1.5"/>
	<path d="M19.5 39.5 C19.5 35.5 28.5 35.5 28.5 39.5 Z" fill="#ee7d22" stroke="#3b271b" stroke-width="2"/>
	<path d="M21.5 37.6 C22.5 36.8 23.5 36.6 24.5 36.6" stroke="#f6a04d" stroke-width="1.3"/>
</svg>
